<svg width="16" height="16" viewBox="0 0 16 16" fill="none" xmlns="http://www.w3.org/2000/svg">
<path d="M10.2937 8.17746C10.1962 8.07996 10.1962 7.92121 10.2937 7.82371L15.0625 3.05996C15.6462 2.47371 15.6462 1.52496 15.0625 0.938711C14.4787 0.352461 13.5337 0.352461 12.95 0.938711L8.17746 5.70621C8.07996 5.80371 7.92121 5.80371 7.82371 5.70621L3.06121 0.937461C2.47496 0.353711 1.52496 0.353711 0.938711 0.937461C0.352461 1.52121 0.352461 2.46621 0.938711 3.04996L5.70621 7.82121C5.80371 7.91871 5.80371 8.07746 5.70621 8.17496L0.937461 12.9387C0.353711 13.525 0.353711 14.4737 0.937461 15.06C1.52121 15.6462 2.46621 15.6462 3.04996 15.06L7.82121 10.2925C7.91871 10.195 8.07746 10.195 8.17496 10.2925L12.9387 15.0612C13.525 15.645 14.4737 15.645 15.06 15.0612C15.6462 14.4775 15.6462 13.5325 15.06 12.9487L10.2937 8.17746Z" fill="url(#paint0_linear)"/>
<defs>
<linearGradient id="paint0_linear" x1="7.99996" y1="0.362836" x2="7.99996" y2="15.265" gradientUnits="userSpaceOnUse">
<stop stop-color="#FF5252"/>
<stop offset="0.446" stop-color="#EE3030"/>
<stop offset="1" stop-color="#D50000"/>
</linearGradient>
</defs>
</svg>
