<svg width="18" height="18" viewBox="0 0 18 18" fill="none" xmlns="http://www.w3.org/2000/svg">
<path d="M8.99983 0C7.29364 0.00105239 5.6229 0.487072 4.18238 1.4014C2.74186 2.31573 1.59092 3.62069 0.863738 5.16415C0.136551 6.70761 -0.13692 8.42599 0.0752041 10.1189C0.287329 11.8119 0.97631 13.4097 2.06183 14.726C2.06183 14.726 2.06183 14.736 2.06883 14.74C2.98393 15.8441 4.14963 16.7136 5.46882 17.276L5.51382 17.296C5.61882 17.34 5.72583 17.382 5.83283 17.422L5.95983 17.469C6.05183 17.5023 6.14449 17.5337 6.23782 17.563L6.41783 17.619C6.50049 17.6437 6.58349 17.6673 6.66682 17.69C6.73982 17.71 6.81383 17.728 6.88783 17.746C6.96182 17.764 7.03783 17.782 7.11282 17.798C7.18782 17.814 7.28183 17.832 7.36683 17.847C7.43482 17.86 7.50383 17.873 7.57282 17.884C7.66782 17.899 7.76283 17.911 7.85782 17.924C7.91982 17.932 7.98083 17.941 8.04283 17.947C8.15083 17.958 8.25983 17.966 8.36883 17.974C8.41983 17.974 8.46883 17.983 8.52083 17.986C8.67749 17.9953 8.83716 18 8.99983 18C9.16183 18 9.32283 18 9.48283 17.987C9.53382 17.987 9.58283 17.979 9.63483 17.975C9.74383 17.967 9.85283 17.959 9.96083 17.948C10.0228 17.941 10.0838 17.932 10.1458 17.925C10.2458 17.913 10.3368 17.901 10.4308 17.885C10.4998 17.874 10.5678 17.861 10.6368 17.848C10.7218 17.832 10.8068 17.816 10.8908 17.798C10.9748 17.78 11.0408 17.764 11.1158 17.746C11.1908 17.728 11.2638 17.71 11.3368 17.69C11.4098 17.67 11.5028 17.644 11.5858 17.619L11.7658 17.563C11.8592 17.533 11.9518 17.5017 12.0438 17.469L12.1708 17.422C12.2778 17.382 12.3838 17.34 12.4898 17.296L12.5348 17.277C13.854 16.7146 15.0197 15.8451 15.9348 14.741C15.9348 14.741 15.9348 14.731 15.9418 14.727C17.0279 13.4104 17.7172 11.8122 17.9293 10.1187C18.1414 8.42523 17.8677 6.70635 17.14 5.16256C16.4123 3.61877 15.2606 2.31371 13.8193 1.39964C12.378 0.485558 10.7065 0.000138034 8.99983 0V0ZM12.6468 16.566L12.6338 16.573C12.5268 16.625 12.4178 16.673 12.3078 16.721L12.2338 16.753C12.1378 16.793 12.0408 16.8313 11.9428 16.868L11.8198 16.913C11.7328 16.944 11.6458 16.974 11.5578 17.002L11.3938 17.052C11.3158 17.075 11.2378 17.098 11.1588 17.119C11.0798 17.14 11.0248 17.153 10.9588 17.169C10.8928 17.185 10.8178 17.203 10.7468 17.218C10.6758 17.233 10.5908 17.249 10.5128 17.263C10.4348 17.277 10.3868 17.287 10.3228 17.297C10.2348 17.311 10.1458 17.322 10.0578 17.333C10.0018 17.34 9.94583 17.349 9.88883 17.355C9.78883 17.366 9.68883 17.373 9.58883 17.38C9.54383 17.38 9.49883 17.388 9.45283 17.39C9.30016 17.3967 9.14916 17.4 8.99983 17.4C8.85049 17.4 8.70183 17.396 8.55383 17.388C8.50783 17.388 8.46283 17.381 8.41783 17.378C8.31783 17.371 8.21783 17.364 8.11783 17.353C8.06083 17.347 8.00483 17.339 7.94882 17.331C7.86083 17.32 7.77182 17.309 7.68383 17.295C7.61982 17.285 7.55683 17.273 7.49382 17.261C7.41582 17.247 7.33683 17.233 7.25983 17.216C7.18283 17.199 7.11783 17.184 7.04782 17.167C6.97782 17.15 6.91383 17.135 6.84783 17.117C6.78183 17.099 6.69082 17.073 6.61182 17.05L6.44182 17C6.35383 16.972 6.26649 16.9423 6.17982 16.911L6.05683 16.866C5.95883 16.8293 5.86182 16.791 5.76582 16.751L5.69182 16.719C5.58182 16.672 5.47283 16.619 5.36583 16.571L5.35283 16.564C4.31104 16.0581 3.38449 15.3433 2.63083 14.464C2.92166 13.4082 3.46981 12.441 4.22617 11.649C4.98254 10.8571 5.92351 10.2651 6.96483 9.926C7.00682 9.951 7.04982 9.974 7.09282 9.998L7.16883 10.041C7.25783 10.088 7.34882 10.133 7.44182 10.173C7.51283 10.204 7.58682 10.231 7.65982 10.258L7.70283 10.274C8.54146 10.5761 9.45919 10.5761 10.2978 10.274L10.3408 10.258C10.4138 10.231 10.4878 10.205 10.5588 10.173C10.6518 10.133 10.7418 10.089 10.8318 10.041L10.9068 10C10.9498 9.976 10.9938 9.953 11.0358 9.927C12.0776 10.2665 13.0188 10.8592 13.7752 11.6519C14.5316 12.4445 15.0795 13.4125 15.3698 14.469C14.6154 15.3472 13.6886 16.0609 12.6468 16.566ZM5.69982 6.6C5.69968 6.02815 5.84813 5.46608 6.13063 4.96888C6.41313 4.47169 6.81999 4.05644 7.31131 3.76384C7.80263 3.47124 8.36156 3.31134 8.93329 3.29981C9.50502 3.28828 10.0699 3.42552 10.5727 3.69807C11.0754 3.97062 11.4986 4.36913 11.801 4.85453C12.1033 5.33994 12.2743 5.89557 12.2972 6.46696C12.3201 7.03835 12.1941 7.60588 11.9316 8.11393C11.6691 8.62197 11.2791 9.05308 10.7998 9.365C10.6822 9.44136 10.5595 9.50984 10.4328 9.57L10.3878 9.592C9.95292 9.7873 9.48157 9.88828 9.00483 9.88828C8.52808 9.88828 8.05673 9.7873 7.62183 9.592L7.57683 9.57C7.44665 9.51031 7.32069 9.44182 7.19982 9.365C6.73943 9.06538 6.3611 8.65557 6.09917 8.17273C5.83723 7.68989 5.69997 7.14931 5.69982 6.6ZM15.8188 13.9C15.4791 12.9041 14.9259 11.9943 14.1981 11.2343C13.4702 10.4743 12.5852 9.88244 11.6048 9.5C12.1923 8.97287 12.6061 8.27987 12.7914 7.51259C12.9766 6.74531 12.9247 5.93987 12.6425 5.20272C12.3603 4.46556 11.861 3.83139 11.2107 3.38402C10.5604 2.93665 9.78966 2.69714 9.00033 2.69714C8.21099 2.69714 7.44024 2.93665 6.78993 3.38402C6.13961 3.83139 5.64035 4.46556 5.35813 5.20272C5.07591 5.93987 5.02401 6.74531 5.20929 7.51259C5.39457 8.27987 5.80831 8.97287 6.39582 9.5C5.41551 9.8825 4.53051 10.4744 3.80266 11.2344C3.07481 11.9944 2.52165 12.9041 2.18182 13.9C1.40828 12.8251 0.899842 11.5826 0.697985 10.2738C0.496128 8.96497 0.606577 7.62698 1.02032 6.36899C1.43406 5.111 2.13937 3.96866 3.0787 3.03518C4.01803 2.1017 5.16475 1.40353 6.4253 0.99765C7.68585 0.59177 9.02451 0.489676 10.332 0.699701C11.6395 0.909725 12.8789 1.42592 13.9489 2.20615C15.0189 2.98639 15.8893 4.00856 16.4891 5.18926C17.0888 6.36995 17.4009 7.67572 17.3998 9C17.402 10.7591 16.8487 12.4739 15.8188 13.9Z" fill="#F19737"/>
<path d="M12.4998 16C14.4328 16 15.9998 14.433 15.9998 12.5C15.9998 10.567 14.4328 9 12.4998 9C10.5668 9 8.99976 10.567 8.99976 12.5C8.99976 14.433 10.5668 16 12.4998 16Z" fill="#F19737"/>
<path d="M12.4998 15.5C14.1566 15.5 15.4998 14.1569 15.4998 12.5C15.4998 10.8431 14.1566 9.5 12.4998 9.5C10.8429 9.5 9.49976 10.8431 9.49976 12.5C9.49976 14.1569 10.8429 15.5 12.4998 15.5Z" stroke="#F19737"/>
<path d="M9.97974 12.564H15.1467" stroke="white"/>
<path d="M12.5637 9.97998V15.147" stroke="white"/>
</svg>
